<?xml version="1.0" standalone="no"?>
<!DOCTYPE svg PUBLIC "-//W3C//DTD SVG 20010904//EN"
 "http://www.w3.org/TR/2001/REC-SVG-20010904/DTD/svg10.dtd">
<svg version="1.0" xmlns="http://www.w3.org/2000/svg"
 width="980.000000pt" height="980.000000pt" viewBox="0 0 980.000000 980.000000"
 preserveAspectRatio="xMidYMid meet">

<g transform="translate(0.000000,980.000000) scale(0.100000,-0.100000)"
fill="#000000" stroke="none">
<path d="M4443 9665 c-168 -17 -249 -29 -453 -66 -768 -141 -1474 -479 -2120
-1018 -147 -122 -507 -482 -631 -631 -462 -554 -784 -1166 -949 -1805 -110
-425 -153 -781 -153 -1270 0 -397 22 -642 89 -990 151 -778 508 -1505 1049
-2130 548 -634 1228 -1120 1950 -1395 1135 -431 2565 -396 3660 89 532 236
1024 579 1465 1021 860 860 1320 1868 1401 3070 13 192 7 645 -11 820 -102
1021 -465 1866 -1134 2645 -168 196 -502 515 -706 676 -731 576 -1529 894
-2464 984 -200 19 -800 19 -993 0z m1057 -534 c529 -71 924 -187 1345 -398
818 -409 1545 -1134 1953 -1949 212 -423 344 -875 409 -1394 23 -184 26 -797
5 -985 -56 -498 -183 -955 -381 -1370 -431 -901 -1245 -1693 -2149 -2093 -422
-186 -897 -303 -1381 -341 -173 -14 -539 -14 -712 0 -1032 81 -1924 494 -2664
1234 -775 774 -1190 1679 -1255 2735 -54 886 119 1685 518 2395 75 134 264
413 366 540 422 525 934 948 1476 1220 423 212 826 334 1322 401 204 27 328
33 668 29 255 -3 358 -8 480 -24z"/>
<path d="M3425 7293 c-157 -33 -296 -111 -415 -232 -177 -178 -261 -400 -246
-647 19 -321 205 -593 499 -729 123 -57 185 -69 347 -69 121 -1 158 3 225 22
289 83 515 304 596 584 26 92 37 295 20 392 -29 167 -111 323 -239 452 -118
119 -266 198 -430 230 -94 18 -267 17 -357 -3z"/>
<path d="M5943 7230 c-67 -12 -203 -62 -262 -96 -193 -113 -346 -314 -402
-529 -43 -164 -24 -403 44 -557 102 -231 325 -419 572 -484 98 -26 322 -26
420 0 247 65 470 253 572 484 68 154 87 393 44 557 -30 115 -99 246 -179 340
-109 128 -218 201 -382 256 -86 29 -109 32 -235 35 -77 2 -163 -1 -192 -6z"/>
<path d="M1833 4133 c-24 -8 -67 -38 -97 -66 -70 -68 -100 -143 -93 -237 5
-83 24 -118 175 -345 656 -981 1525 -1533 2625 -1670 575 -71 1169 -25 1682
130 591 179 1066 470 1510 926 275 282 585 695 615 819 40 166 -82 340 -258
366 -57 9 -159 -19 -212 -57 -23 -17 -70 -74 -111 -136 -525 -785 -1192 -1250
-2020 -1412 -253 -49 -444 -64 -744 -58 -520 10 -906 96 -1330 296 -505 238
-967 665 -1305 1206 -91 145 -157 215 -225 238 -59 21 -155 21 -212 0z"/>
</g>
</svg>
